<svg xmlns="http://www.w3.org/2000/svg" viewBox="0 0 673.029 388.884"><defs><style>.cls-1{fill:#FFFFFF;}</style></defs><title>EmilyLogo</title><g id="Layer_2" data-name="Layer 2"><path class="cls-1" d="M307.028,154.472c-6.326-12.188-18.555-16.849-29.593-22.945-1.245-.687-3.445.356-5.2.6a48.794,48.794,0,0,0,1.026,5.077c.924,2.993,2.038,5.927,3.073,8.886l-3.342,2.511-3.4-7.635-7.071,2.847c-.221-1.372-.73-2.393-.445-3.089,4.065-9.937,4.089-9.916-6.2-12.672-1.113-.3-2.173-.792-4.887-1.8,10.719-5.881,21.173-.8,30.937-3.985a13.534,13.534,0,0,0-7.3-12.518c-10.573-5.853-21.37-6.75-32.969-2.517-4.067,1.484-9.131.237-13.739.237l-.61-2.491,17.593-7L228.127,86.8l1.846-3,30.011,13.049c1.044-4.907,1.81-8.513,2.658-12.5-6.9-1.208-14.711.694-17.51-9.579l12.734,3.82V63.031c1.512.184,2.331.135,2.383.312,2.752,9.313,11.645,16.115,10.606,27.085-.482,5.092.153,5.153,11.858,10.182,1.906-5.3,4.129-10.474,5.449-15.869.325-1.326-1.957-3.905-3.634-4.982-3.913-2.51-8.188-4.457-12.316-6.633l.66-2.524,17.06,2.661c-2.855-13.65-20.368-8.271-24.876-20.891l11.566,4.253c-2.223-5.2-4.158-9.722-6.092-14.246l2.77-1.5,18.229,20.741c3.852-2.695,4.933-5.16,3.465-9.778-1.1-3.448.379-7.712.708-11.613l1.854.254c2.047,4.706,4.208,9.368,6.062,14.15a7.71,7.71,0,0,1-.157,4.179c-3.021,13.108-6.327,26.155-9.127,39.31-2.311,10.859,2.473,19.167,10.654,25.852,3.145,2.571,6.457,4.937,9.779,7.463,6.481-3.986,7.788-9.152,6.447-16.144-1.484-7.734-3.894-12.446-13.209-11.47-3.117.326-6.673-3.545-10.029-5.5l.735-2.073,13.245,1.977c-1.48-4.471-2.654-8.016-3.828-11.56l1.988-1.117c2.378,3.07,4.686,6.2,7.162,9.187,1.428,1.722,3.209,4.555,4.685,4.466,1.716-.1,3.492-2.692,4.848-4.5,2.058-2.742,3.777-5.738,5.64-8.626l2.182.981c-1.7,5.218-2.345,11.17-5.35,15.477-4.065,5.824-2.191,9.956,1.676,16.918l18.768-40.14c5.576,9.706-2.061,15.388-2.392,23.957l22.134-5.849,1.047,2.314c-4.781,4.8-10.113,8.571-17.143,10.369a18.007,18.007,0,0,0-8.142,5.2c-3.393,3.666-5.893,8.14-9.068,12.029-5.627,6.891-6.433,14.217-4.628,22.918,1.517,7.311.582,15.117.9,22.7.136,3.25-.462,7.683,1.347,9.422,2.362,2.271,6.882,3.392,10.274,3.047,1.762-.179,4.285-4.521,4.407-7.081.452-9.478,1.141-18.77-6.915-26.763-6.259-6.209-2.659-14.7-1.481-22.215l2.336-.531L346.131,141l9.178-6.542c3.8,3.5,1.337,5.515-1.218,8.2-1.622,1.7-1.932,4.657-2.831,7.05,2.566.005,5.416.737,7.641-.132,5.19-2.026,9.216-5.648,8.583-11.877-.207-2.037-1.875-4.052-3.213-5.821-3.51-4.639-7.207-9.136-10.829-13.69l2.749-2.375,11.249,10.4c2.035-7.351,3.865-13.959,5.695-20.567l2.455-.016c.6,4.43,1.521,8.846,1.725,13.3.249,5.434-.523,10.93-.082,16.336.531,6.508-.8,12.158-6.221,15.926-8.787,6.1-10.659,14-8.035,23.963,1.133,4.3.569,9.027,1.206,13.5a12.76,12.76,0,0,0,3.363,6.322c3.246-15.9,15.059-25.871,23.305-38.043,1.624-2.4,2.49-5.307,3.7-7.981-2.444-.755-4.92-1.422-7.317-2.3a36.934,36.934,0,0,1-4.428-2.487l6.462-3.776c-1.2-4.375-2.29-8.382-3.384-12.389l2.218-1.054,14.746,16.707c4.256-6.025,4.263-12.2.649-18.6-5.417-9.6-10.643-19.311-16.166-28.85-4.826-8.337-15.249-10.224-23.365-4.931a23.753,23.753,0,0,1-11.73,3.474,60.926,60.926,0,0,1,5.242-6.117,69.608,69.608,0,0,1,6.907-4.965c-8.365-7.349-16.049-14.431-24.129-21.028-3.142-2.565-5.613-1.594-9.583,1.312-6.419,4.7-13.137,11.857-24.4,8.595l19.911-12.885C318,50.838,309.679,41.89,300,31.478c9.82,1.073,17.166,5.364,19.893,11.25,5.706,12.316,15.433,9.563,24.975,10.43,1.828-6.633,1.025-10.945-5.54-13.931C333.22,36.448,329.054,31.2,326.6,25l1.513-1.9,21.072,14.267c1.9-9.158,3.428-16.512,4.955-23.866l2.239.5c3.357,10.642,4.765,21.134-2.56,31.835l11.223-4.608,1.438,1.466c-2.235,2.18-4.168,4.85-6.761,6.448-7.853,4.838-9.3,12.41-1.869,17.822a77.414,77.414,0,0,0,21.628,10.826c7.086,2.275,14.678-7.428,12.326-14.611-2.141-6.54-5.66-7.022-11.676-3.544-3.671,2.122-8.675,1.937-13.08,2.789q-.392-1.276-.782-2.551l12.594-7.536c-7.6-10.469-10.991-21.492-14.074-34.977,8.65,3.838,6.395,19.14,18.334,13.919l-4.872-11.785,2.349-1.45,6.366,10.023,1.765-1.79,8.131-3.365,1.74,2.22c-4.444,4.268-8.506,9.057-13.438,12.657-4.949,3.612-5.584,5.242-.755,8.737,2.524,1.825,5.3,3.308,7.832,5.117s4.9,3.822,8.853,6.932c2.373-5.093,6.337-9.664,6.225-14.133-.284-11.366,5.394-19.8,11.765-30.21,5.863,11.927-6.885,21.109-1.915,31.5l12.952,2.8V31.08l1.746-.74c1.17,2.431,3.15,4.79,3.377,7.306,1.235,13.656,4.545,12.911,14.484,9.484,1.053-.363,2.266-.262,4.341.983-1.917,1.643-3.578,3.947-5.8,4.811-7.639,2.971-15.415,5.031-23.775,2.3-8.735-2.849-13.965-.572-18.248,7.838-3.125,6.135-6.415,12.322-8.414,18.858-2.551,8.343-.986,12.454,5.149,19.874,5.535-3.456,7.717-8.723,8.594-14.93.576-4.081.737-8.759,7.429-10.089-.634,2.493-1.08,4.185-1.494,5.885-1.184,4.864-1.414,8.213,5.331,9.837,5.682,1.369,10.629,5.787,17.782,9.95l-9.887.825c-.877,2.216-1.863,4.7-2.849,7.2l-1.94.112c-.5-2.5-.656-5.134-1.595-7.454-.815-2.012-2.221-4.7-3.907-5.175-1.546-.439-4.513,1.17-5.651,2.745-5.96,8.253-4.984,12.9,4.8,23.157,4.483-8.419,12.6-9.971,20.939-11.84,13.541-3.035,19.043-15.643,12.057-26.836a9.4,9.4,0,0,0-6.032-3.861c-8.32-1.02-12.673-4.386-15.791-13.9l22.066,9.511c3.707-7.661,6.811-14.073,9.914-20.485l2.3.756c3.691,10.171-8.741,20.094-.428,31.734l23.675-15.848,1.854,1.625c-2.021,2.449-4.2,4.792-6.016,7.382a68.6,68.6,0,0,0-3.738,6.724c2.215,1,4.408,2.046,6.651,2.973,3.211,1.326,6.459,2.562,9.691,3.836q-.261,1.437-.52,2.874c-5.554-.749-11.414-.628-16.6-2.443-8.848-3.1-11.134-2.813-15.452,5.4-1.338,2.545-3.092,5.175-3.342,7.888-.182,1.978,1.282,5.045,2.945,6,1.714.98,6.414.514,6.623-.222,2.322-8.2,9.8-8.552,17.743-11.913l-16.267,20.663c4.126,3.3,16.754,3.721,20.826.922a72.893,72.893,0,0,1,8.306-5.3,103.12,103.12,0,0,1,9.839-3.761c-.681,9.215-11.062,7.182-14.387,14.3l16.3,16.6c-7.621,1.755-13.195-1.862-17.273-7.073-3.916-5-8.256-5.914-15.052-4.523,2.179,7.97,4.275,15.641,6.332,23.166-5.9-.7-10.522-6.829-11.723-13.271-.742-3.976-3.533-7.762-6.051-11.154a36.142,36.142,0,0,0-18.65-12.365c.41,14,9.523,21.577,19.294,28.723l-1.212,1.757-11.424-4.246c-1.224,2.864-2.378,5.567-3.533,8.27l-2.236.126c-.457-2.923-1.837-6.065-1.2-8.731,2.279-9.616-5.534-15.221-8.6-22.642-.411-.995-5.044-1.3-7.038-.4-7.653,3.438-11.263,16.872-6.417,23.753,1.168,1.659,3.916,2.762,6.083,3.062,8.22,1.138,13.69,6.153,19.179,11.8a165.331,165.331,0,0,0,17.635,15.343c3.11,2.4,14.413-2.224,17.518-5.808,4.229-4.881,9.029-9.267,13.584-13.865l2.384,1.853-10.728,15.4,20.793,5.087-.024,3.035-16.541,1.435c1.428,4.174,2.665,7.792,3.9,11.41l-1.492,1.21c-2.326-2.617-5.95-4.9-6.726-7.915-2.031-7.893-6.2-8.747-12.7-5.736-1.9.881-3.937,1.473-5.743,2.136,2.428,12.56,12.162,17.7,22.585,22.19l-1.1,2.309-14.186-1.348-3.347,6.756c-2.095-5.69-2.964-10.657-5.53-14.488-5.79-8.646-9.177-19.495-20.24-23.766a10.218,10.218,0,0,1-3.717-3.325c-6.263-7.806-14.283-9.953-23.965-7.74.664,5.474,1.31,10.794,2.014,16.6,9.788-2.021,19.409-4.826,28.2,5.3H431.233c2.823,5.918,4.907,10.287,7.93,16.627-3.455-2.06-5.693-2.813-7.1-4.336-4.782-5.194-8.9-11.048-14.021-15.858a16.912,16.912,0,0,0-10.367-4.446c-2.072-.033-5.061,3.728-6.168,6.392-4.577,11.027-5.524,21.564,1.84,32.613,3.552,5.329,4.191,13.189,4.434,19.965.232,6.445,2.6,8.67,8.517,8.5,5.285-.148,10.579-.035,15.86-.255,11.092-.462,17.208-9.772,13.317-20.093-.677-1.795-1.254-3.629-1.935-5.423-2.122-5.587-5.393-6.5-10.641-4.182-5.5,2.433-11.387,4-17.105,5.942l-1.351-3.6,14.983-6c-2.318-4.353-4.126-7.747-6.593-12.378l24.523,11.97c-1.223-8.546-2.23-15.574-3.236-22.6l2.56-.833c1.312,2.8,2.5,5.668,3.972,8.385,1.194,2.21,2.719,4.241,4.1,6.351,1.6-1.6,3.2-3.214,4.813-4.8,1.144-1.124,2.319-2.216,3.677-3.51,1.344,6.471.331,9.212-3.665,12.709-2.089,1.829-4.6,3.939-5.311,6.389-.917,3.147-.221,6.763-.22,10.177,2.622-.423,5.269-.727,7.861-1.287,12.251-2.643,24.459-5.5,36.749-7.939,2.867-.57,6,.176,9,.317l.453,1.858-18.671,8.083,12.6,17.7-1.94,2.053c-3.714-3.119-8.523-5.581-10.884-9.513-3.464-5.766-7.283-6.494-13.079-4.795-7.737,2.267-13.851,6.237-17.962,14.219,2.874,2.1,5.363,4.343,8.222,5.907,3.837,2.1,7.44,3.278,9.6-2.77.839-2.349,4.2-3.794,6.928-4.985-3.375,9.387-3.375,9.387,9.7,19.936-2.553.231-4.335.82-5.9.458-6.707-1.549-14.175-2-19.835-5.4-10.418-6.262-18.2-2.393-26.226,3.717-1.145.872-2.2,1.866-3.307,2.787-9.761,8.1-20.468,10.966-32.868,6.667-9.744-3.378-13.018-2.227-19.233,5.87-6.9,8.983-10.023,18.932-7.775,30.371,2.77,14.1,6.223,27.974,18.281,37.208a23.665,23.665,0,0,0,13.66,4.581c7.6-.08,13.6,2.049,18.678,7.463,1.135,1.209,2.6,3.267,3.724,3.146,11.415-1.229,17.445,10.4,27.888,11.461,2.05.208,3.936,2.028,5.9,3.1q-.291,1.445-.584,2.889c-7.4-.528-14.8-.945-22.181-1.616-7.354-.668-14.685-1.592-21.322-2.326L453.813,388.3l-.356,2.034c-16.815,3.713-33.547-2.962-50.921-1.656l3.258,5.129c-11.385,1.316-21.737.594-31.89-3.836-2.3-1-5.509-.392-8.2.076-15.124,2.634-27.747,14.531-44.293,11.983-1.3-.2-2.607-.351-3.91-.525q-.387-1.041-.773-2.081l22.324-11.541c-11.834-7.375-24.607-3.452-37.4-2.045-7.678.845-15.526.155-23.718-1.305l31.531-10.167-.417-2.633c-6.028-4.05-12.624-1.342-19.156-.626-10.263,1.125-20.57,1.847-30.859,2.74l-.962-2.925c6.242-2.915,12.291-6.4,18.774-8.6,8.378-2.851,17.075-4.8,25.691-6.9,3.879-.948,7.988-2.227,11.826-1.813,9.706,1.049,13.737-1.82,13.906-11.959.079-4.747-.916-9.52-1.533-14.267-1.44-11.094-3.13-22.159-4.359-33.276-.841-7.6-13.689-17.454-23.558-16.691-7.617.589-15.109,2.661-22.7,3.76-12.425,1.8-22.633-1.943-29.8-12.674,1.234.646,2.7,1.048,3.666,1.976,9.067,8.739,19.774,9.876,31.421,7.061,3.722-.9,7.528-1.473,11.221-2.468,8.342-2.247,15.641-.049,22.27,5,2.61,1.991,5,4.266,7.257,6.207l6.468-1.916c-4.8,10.777-4.911,21.627-1.427,32.89,4.395,14.209,7.414,28.582-2.625,42.45a109.5,109.5,0,0,0-11.322-3.443,12.219,12.219,0,0,0-6.96.724c-10.086,4.43-19.942,9.2-31.5,8.588-2.448-.129-5.038,2.4-7.562,3.7l.789,2.294q11.219-1.716,22.438-3.428c4.261-.642,9.321-3.007,12.642-1.519,8.984,4.029,16.774-.451,25.06-1.4,6.288-.723,8.942-4.474,8.507-10.294-.639-8.534-1.18-17.154-2.89-25.507-1.72-8.4-1.85-16.378.552-23.953.629,8.13,1.246,16.556,1.942,24.977.746,9.008,2.04,18,2.182,27.019.089,5.634-2.819,9.428-9.478,10.274-5.483.7-12.438,1.758-15.672,5.39-4.852,5.449-10.508,6.823-16.643,8.4-1.521.392-3.049.757-4.574,1.135a18.074,18.074,0,0,0,8.51.892c11.9-1.923,23.709-5.767,35.658.093,1.738.852,4.4.592,6.366-.014,1.84-.567,4.716-2.231,4.758-3.491.474-14.239,3.393-28.324.605-42.795-2.007-10.415-1.461-21.321-2.053-32.008l1.983-.107q1.614,17.875,3.229,35.75l1.946-.195q-.781-13.412-1.565-26.823l2.114-.038c0,19.761.339,39.53-.16,59.279-.212,8.41-5.208,14.917-12.665,18.794-4,2.081-8.628,2.969-12.972,4.395l.537,2.063c2.98-.418,6.15-.331,8.9-1.362,5.566-2.085,10.724-5.363,16.373-7.1,14.278-4.4,14.346-4.167,14.049-18.55,0-.256.438-.52.692-.8,2.384,6.365-.2,15.408,9.16,17.852,6.713,1.754,13.63,2.724,20.457,4.043q.45-1.15.9-2.3c-8.275-1.079-12.839-5.827-14.533-11.548,5.5,2.026,11.366,4.875,17.561,6.264,5.477,1.228,11.336.657,17,1.194,7.45.706,14.871,1.718,22.3,2.6q.315-1.374.631-2.75c-4.233-1.279-8.388-3.1-12.715-3.721-7.829-1.129-15.737-1.592-19.323-10.4q15.52,1.632,31.037,3.255c4.5.463,9.01.852,13.515,1.274-8.2-2.548-12.527-15.872-23.5-8.032-1.176-1.909-1.9-3.141-2.679-4.341-5.609-8.669-13.179-11.866-14.409-6.368l-7.494-2.727c1.006,2.655,1.538,4.062,2.367,6.249-32.389-24.339-42.306-53.691-27.863-80.7,5.146-6.019,10.666-11.762,15.362-18.115,10.15-13.734,12.052-28.442,3.8-43.9-1.921-3.6-4.031-7.118-5.7-10.833-4.195-9.345-2.185-23.85,3.755-28.234,5-3.693,11.272-6.453,14.746-11.246,4.344-5.992,9.263-13.836,8.808-20.534-.776-11.448-2.534-23.922-13.3-31.9-1.049-.777-1.476-2.392-2.192-3.618l9.464-20.316a86.274,86.274,0,0,0-8.987,11.1c-1.17,1.769-1.436,4.135-2.111,6.23-7.606-7.9-13.4-16.837-9.535-28.146,2.9-8.478,7.6-16.34,11.5-24.476,9.71-7.075,6.035-17.844,7.054-27.325l-6.948,27.421c-4.541,5.432-8.909,11.021-13.664,16.259-6.852,7.548-6.52,15.636-2.127,23.96,4.247,8.046,8.8,15.932,13.377,23.8,7.009,12.064,5.135,23.574-4.645,33.261A193.5,193.5,0,0,0,380.1,175.774c-6.524,8.79-12.8,18.27-4.227,29.911a32.237,32.237,0,0,1-7.671-5.83c-6.79-7.612-15.143-11.811-25.338-11.5a161.436,161.436,0,0,0-21.419,1.945c-21.361,3.543-35.3-1.509-45.831-19.929-8.488-14.845-19.631-22.186-36.774-20.645-7.363.661-13.578-2.318-18.231-8.277a34.438,34.438,0,0,0-3.959-3.539c2.863,9.286,8.573,13.34,16.521,14.878a115.206,115.206,0,0,1,14.7,3.411c8,2.676,14.586,7.24,17.353,15.815-4.067-1.006-8.082-2.4-12.209-2.944-15.1-1.986-24.058,3.415-31.221,16.963-1.871,3.539-6.218,5.957-9.8,8.329-1.941,1.286-4.663,1.391-7.034,2.029,7.392-.591,16.118,1.145,19.937-7.477,6.052-13.665,12.054-16.724,26.344-14.237,4.432.771,10.39,3.508,13.89-2.78a37.538,37.538,0,0,1,3.146,3.812c6.08,9.635,11.249,20.016,18.481,28.68,3.516,4.212,10.642,6.457,16.494,7.436,9.535,1.595,19.365,1.423,29.07,2l.079-1.282-9.828-.44c8.616-.323,17.065-4.654,25.573,2.742,17.474,15.191,18.6,36.109,1.416,51.267-6.974,6.152-14.016,12.226-21.028,18.335q3.123-5.255,6.244-10.509c-6.353,4.259-5.5-3.185-8.094-4.682-10.686-6.168-21.51-11.738-34.037-5.006-16.431,8.831-31.892,5.81-46.938-3.506-3.484-2.157-7.046-4.186-10.572-6.273l-.5.935L246.4,268.566a9.788,9.788,0,0,1-2.591-1.016c-15.727-12.293-15.72-12.3-35.427-15.135,5.449-7.627,14.642-1.815,20.2-6.516l-5.843-12.826,2.4-1.2c4.707,4.9,10.952,8.265,11.672,16.7.25,2.932,4.3,6.053,7.287,8.112,4.088,2.817,8.818,4.7,13.423,7.063,0-7.855-.179-15.064.04-22.261.35-11.463-2.912-14.562-13.869-15.5-5.593-.476-10.978-3.389-16.457-5.2l.444-2.53h18.55l-8.965-26.916c9.72,4.236,12.544,12.179,14.206,20.981l2.7.062,9.551-18.259,2.242,1.042c-2.985,6.443,2.245,15.212-6.5,20.147-.637.359-.683,2.694-.264,3.839,2.217,6.055,4.67,12.024,7.345,18.791l7.627-2.119c-3.467-6.024-8.542-11.13-3.734-18.419l6.547,11.346,9.548-7.122c0,2.538,1.148,6.284-.224,8.391-3.579,5.5-7.687,10.968-12.683,15.13-4.2,3.5-4.962,6.637-1.8,10.209,7.237,8.184,10.019,11.7,20.63,6.174,13.027-6.79,24.687-2.3,35.715,5.305,5.031,3.47,9.7,5.729,15.392.593,5.833-5.267,6.908-10.744,1.566-16.483-4.888-5.25-10.106-10.216-15.427-15.034-4.486-4.062-10.24-3.7-14.794,2.775-4.884,6.943-11.338,5.2-17.4,6.407l-1.18-1.871c3.31-2.391,6.619-4.781,9.412-6.8L291.6,226.035l.805-2.237a30.085,30.085,0,0,1,5.327,1c8.494,3.2,16.751,6.936,24.412-2.2,1.765-2.1,5.778-2.322,10.473-4.032-2.907-1.091-4.232-2.006-5.555-2a60.82,60.82,0,0,0-11.5.678c-16.643,3.24-28.765-4.162-35.909-17.913-7.889-15.187-21.407-20.432-36.01-23.085-4.2-.762-9.862,6.27-14.75,9.868a3.782,3.782,0,0,0-.871,2.686c-.117,11.271-6.741,19.2-13.914,26.727-1.672,1.755-4.319,2.582-6.518,3.836l-1.387-1.75,12.979-19.338-25.268,4.734-.856-1.744,8.082-6.706-8.588-8.173,1.247-2.029c4.018,1.54,8.667,2.27,11.912,4.8,5.484,4.278,9.357,2.6,12.811-1.911,2.986-3.9.944-9.823-4.644-12.289-4.909-2.166-10.352-3.092-15.5-4.758-3.329-1.077-6.546-2.5-9.813-3.768l.523-2.543,19.925-1.43-5.077-15.969,2.668-1.435c2.98,5.14,6.015,10.251,8.922,15.433,1.819,3.242,3.075,6.865,5.252,9.824,2.7,3.666,5.141,2.475,9.449.618,7.539-3.251,16.379-3.494,24.687-4.926a4.263,4.263,0,0,0,3.241-1.137c-3.4-1.918-6.6-4.414-10.232-5.625-5.9-1.965-12.391-2.358-18.042-4.789-4.786-2.06-9.176-5.62-12.931-9.335s-6.516-8.456-10.107-13.277c6.814-2.1,10.672,1.689,14.2,5.846,3.794,4.475,7.515,8.842,14.336,8.267,2.409-7.568-1.448-12.252-7.074-16.276-4.5-3.218-8.462-6.777-6.208-13.2l17.348,12.7c1.235-5.968,2.135-10.313,3.135-15.145,4.388,2.506,5.966,5.774,4.508,10.566-4.091,13.44-.826,19.19,11.333,25.173,5.937,2.922,11.059,8.154,15.518,13.245,4.82,5.5,8.434,12.06,13.4,19.373,2.241-3.688,4.035-5.9,5.015-8.42,1.581-4.07,3.394-8.538-4.612-6.764-2.328.516-5.161-1.244-9.728-2.5l8.835-4.117L283.108,144.9l2.156-1.052,9.119,13.6c5.253-1.261,9-2.162,12.752-3.059-1.464,2.95-4.417,6.076-4.091,8.811a27.8,27.8,0,0,1-3.717,18.493c-.686,1.148.765,3.571,1.23,5.406,1.882-.687,5.174-1.042,5.427-2.113C308.352,174.935,315.288,164.893,307.028,154.472ZM461.066,94.4c-.841-7.858-1.683-15.717-2.748-25.667-1.579,10.395-3.411,18.7,2.153,26.42-4.574,11.8-11.887,20.133-25.551,21.047a12.317,12.317,0,0,0-7.237,2.882c-2.816,2.7-4.794,6.282-7.767,10.373,7.86-3.811,13.863-9.147,19.8-9.077,11.069.128,16.421-4.514,19.418-14.164,2.528-8.142,6.865-14.778,15.74-17.346,1.18-.342,1.991-1.96,2.972-2.987L476.793,84.7ZM351.6,157.542c-.321-1.526-.137-3.905-1.043-4.442-6.176-3.657-9.306-8.729-8.16-16.24-2.063,9.37.1,16.671,9.305,20.585v29.727l5.053-2.483c.334-3.2.444-5.866.934-8.46.416-2.2,2.17-4.493,1.779-6.433-1.776-8.819,2.215-14.881,8.761-19.738,4.743-3.519,6.563-8.1,6.048-13.74-.41-4.5-1.091-8.972-1.651-13.457a18.45,18.45,0,0,0-1.251,9.115c.838,8.738-2.075,15.468-9.911,19.834C358.141,153.661,354.885,155.629,351.6,157.542Zm-22.328,29.61c-.19-4.078-1.067-7.281-.352-10.077,4.4-17.182,2.068-31.894-13.985-42.288a124.322,124.322,0,0,1-11.513-8.644c-12.384-10.234-14.823-18.938-10.053-34.4a93.772,93.772,0,0,0,3.577-13.9c.782-5.358-.588-10.2-7.813-14.148,6.556,9.5,4.4,17.406,1.13,25.326-1.281,3.1-2.312,6.307-3.515,9.443-5.944,15.488-2.265,28.626,9.53,39.914,3.81,3.647,8.364,7.051,10.741,11.538a111.513,111.513,0,0,1,8.438,22.287c1.4,5.049,1.151,10.558,1.7,16.488Zm165.241,35.257-1.017-2.618q-4.332,1.469-8.665,2.937c-3.83,1.293-7.654,3.644-11.494,3.67-11.515.078-19.156,5.427-25.731,14.525-3.227,4.464-8.782,8.089-14.044,10-5.1,1.85-11.17,1.016-16.775,1.358.093.871.21,1.977.4,3.79-10.511-8.8-11.848-8.386-14.9,1.914L412.607,269.1l-1.047,1.471-9.868-1.65c8.415,4.263,16.489,5.354,25.16.1,9.99-6.048,21.7-10.02,27.607-20.881,5.762-10.6,14.121-16.332,25.636-18.978C485.151,228,489.721,224.726,494.512,222.409Zm-135,26.679c2.159-11.852-10.1-28.1-23.545-31.78C328.362,231.882,340.129,248.08,359.515,249.088Zm122.162-43.459c-5-9.111-8.941-16.769-13.383-24.123-1.614-2.672-4.331-4.728-6.723-6.866-2.805-2.509-6.272-4.413-8.63-7.259-6.6-7.968-13.4-15.167-26.061-13.239-1.472,5.741,2.854,7.558,7.448,9.479a130.988,130.988,0,0,1,14.013,6.626,98.4,98.4,0,0,1,11.018,7.687,22.356,22.356,0,0,1,5.022,4.957c4.229,6.237,8.124,12.7,12.333,18.951C477.557,203.094,479.217,203.8,481.677,205.629Zm-236.14,3.778c1.85,3.585,2.562,6.576,4.435,8.318,9,8.373,11.345,18.892,9.511,30.3-2.084,12.968,7.187,17.942,20.785,18.52-10.767-5.876-14.242-15.172-16.377-24.792C261.177,229.526,256.965,218.4,245.537,209.407ZM384.024,87.448l1.685-1.2c-1.148-1.6-1.951-3.947-3.506-4.668-4.856-2.252-10.165-3.535-15-5.828-18.173-8.625-21.871-19.858-13.166-38.2,1.357-2.859,1.687-6.2,2.493-9.326a43.38,43.38,0,0,0-6.682,13.161c-.99,3.359-.521,7.118-1.085,10.638-2.012,12.554.492,18.627,11.622,24.582C368.018,80.687,376.129,83.865,384.024,87.448ZM327.8,134.791c10.815-11.652,17.945-25.722,17.455-42.938-1.811,4.436-3.9,8.873-4.522,13.507a22.242,22.242,0,0,1-9.117,15.547c-4.938,3.8-9.406,8.215-14.081,12.359l.964,2.177Zm-91.771-29.772c16.081-5.309,31.48-5.377,45.525,6.175.546-7.4-1.048-10.373-7.364-10.891a159.018,159.018,0,0,0-25.968-.12C244.052,100.526,240.086,103.33,236.028,105.019ZM409.809,172.4c15.548,17.7,15.548,17.7,21,14.787-5.912-.823-6.675-4.97-7.211-9.809-.355-3.206-2.023-6.266-3.1-9.391Zm91.968-31.68c-4.265-6.563-8.107-13.513-17.433-11.7-6.967,1.357-13.079,1.12-18.075-5.834-.023,6.522,2.063,9.045,8.224,8.461,10.4-.985,19.968-.94,26.091,9.406A6.757,6.757,0,0,0,501.777,140.716ZM304.528,229.64c7.97,7.142,23.414,3.292,24.859-5.849C320.465,223.681,315.1,237.807,304.528,229.64Zm-7.8-67.5c-1.274,8.511-2.343,15.654-3.411,22.8l1.819.127c2.579-7.51,9.216-14.336,3.124-23.382Zm-51.871-13.853,1.577-1.745c-2.375-7.893-5.635-15.1-12.55-18.22,1.643,4.6,3.121,9.812,5.4,14.643C240.314,145.13,242.952,146.535,244.858,148.285Zm-21.085,31.368,1.279-2.572c-8.155-6.4-15.818-14.122-28.122-10.312,3.788.521,7.428.474,10.648,1.612a44.714,44.714,0,0,1,10.044,5.55C219.907,175.5,221.739,177.722,223.773,179.653ZM451.2,232.73V210.524C449.939,216.366,442.618,224.455,451.2,232.73ZM268.552,127.466l19.285,4.643C284.822,125.438,277.023,123.693,268.552,127.466Zm-.026-29.995c-.526-5.734-1.036-11.294-1.545-16.855C265.955,96.983,265.955,96.983,268.526,97.471Zm76.207-36.295c-1.05-5.768-4.6-7.08-18.805-6.057Zm89.415-7.124.329-1.818-18.6-2.928-.222,1.85ZM353.135,354.116,351.4,354l-1.259,19.453,1.655.107Z" transform="translate(-31.039 -13.501)"/><path class="cls-1" d="M287.837,132.109l-19.285-4.643" transform="translate(-31.039 -13.501)"/><path class="cls-1" d="M268.526,97.471" transform="translate(-31.039 -13.501)"/><path class="cls-1" d="M266.981,80.616" transform="translate(-31.039 -13.501)"/><path class="cls-1" d="M325.928,55.119" transform="translate(-31.039 -13.501)"/><path class="cls-1" d="M344.733,61.176" transform="translate(-31.039 -13.501)"/><path class="cls-1" d="M373.356,288.067c-.709,4.468-1.539,8.922-2.091,13.409-.491,3.991-1.811,8.339-.788,11.973,3.485,12.371,7.393,24.671,12.051,36.644a21.844,21.844,0,0,0,14.648,13.639l-3.2,4.8c-5.19-6.885-11.849-12.9-14.9-20.39a188.458,188.458,0,0,1-11.7-40.272C366.365,301.763,371.18,294.7,373.356,288.067Z" transform="translate(-31.039 -13.501)"/><path class="cls-1" d="M367.881,322.64q2.373,15.78,4.747,31.562l-1.846.334q-2.706-15.825-5.413-31.649Z" transform="translate(-31.039 -13.501)"/><path class="cls-1" d="M363.242,318.866l1.611,22.324-1.567.127-1.809-22.31Z" transform="translate(-31.039 -13.501)"/></g><g id="Layer_1" data-name="Layer 1"><path class="cls-1" d="M502,391.842c1.665-.832,3.332-1.658,5.05-2.361,14.291-5.844,15.713-8.747,11.262-23.387-3.239-10.655-6.574-21.282-9.688-31.974-2.516-8.638-2.038-16.559,5.5-21.594a1.014,1.014,0,0,0,.449-.946c-.419-3.788-.882-6.985-1.064-10.2-.413-7.307-1.12-14.64-.835-21.929a70.386,70.386,0,0,1,2.843-16.441c3.054-10.674,6.7-21.178,9.993-31.787.291-.937-.018-2.059-.208-3.825a1,1,0,0,1,.652-1.053h0l-.762-2.966-2.192.351a1,1,0,0,1-.88-1.66,1.936,1.936,0,0,1,.832-.571c7.379-2.193,8.756-9.17,12.063-14.648A87.8,87.8,0,0,1,542.4,195.88c2.911-3.493,7.191-4.172,11.454-3.155s5.574,4.62,6.709,8.49c2.211,7.538.765,14.282-3.834,20.886a1,1,0,0,0,.4,1.491c3.911,1.764,7.47,3.327,10.98,4.995,6.5,3.088,11.026,6.975,10.927,15.437-.112,9.588,1.553,19.2,2.441,28.758-.458.074-.309.08-.3.043.051-.156.026-.452.092-.471.636-.177,1.452-.621,1.894-.385a6.01,6.01,0,0,1,2.185,2c6.9,10.917,17.076,18.381,26.964,26.26,3.953,3.15,6.709,7.774,10.135,11.616,8.614,9.661,17.328,19.235,25.947,28.892,6.093,6.827,11.734,14.1,18.241,20.5a243.8,243.8,0,0,0,22.19,19.134c3.151,2.427,7.6,3.108,11.3,4.907a16.074,16.074,0,0,1,3.612,2.825,1,1,0,0,1-.147,1.573c-1.322.847-2.645,1.823-3.955,1.805-6.11-.083-12.21-.765-18.319-1.135a39.97,39.97,0,0,0-7.409-.043c-3.723.475-5.962-1.171-5.068-4.585,2.2-8.413-3.586-11.588-8.8-15.852-8.6-7.03-16.485-14.922-24.984-22.08-11.938-10.053-23.827-20.226-36.43-29.395-4.893-3.56-11.6-4.8-17.635-6.53a11.281,11.281,0,0,0-7.217.761c-12.989,6-26.687,9.121-40.785,10.938-7.607.98-8.616,3.448-7.314,10.857,1.49,8.481,1.507,17.214,2.837,25.733,1.163,7.449,3.316,14.741,4.914,22.127.612,2.825.985,5.7,1.578,9.47a.991.991,0,0,1-1.124,1.139c-11.144-1.831-21,4.532-31.384,2.64Zm34.08-140.423-3.767-.99a37.649,37.649,0,0,1-4.021,6.941c-10.078,12.875-6.979,28.261-8.524,42.735-.327,3.061,2.11,5.424,5.179,4.229,4.258-1.657,8.06-4.45,12.185-6.5,2.988-1.483,6.167-3.543,9.293-3.6,8.02-.152,9.137-.684,6.9-8.323-2.05-7.007-3.684-14.714-13.187-16.139-4.186-.628-5.1-4.21-4.779-8.115C535.646,258.248,535.864,254.833,536.08,251.419Z" transform="translate(-31.039 -13.501)"/><path class="cls-1" d="M172.067,204.343l-3.908-1.53.53-1.447c2.429.851,4.861,1.7,7.285,2.56a6.35,6.35,0,0,1,.825.449c-1.973-5.927-3.982-6.878-10.606-7.5-10.569-1-21.08-2.526-31.584-4.012-4.914-.7-7.35.789-10.5,4.631-11.622,14.186-18.16,30.231-24.762,46.517-7.373,18.191-16.684,35.748-24.42,53.83-3.243,7.582-4.615,15.806-6.817,23.742-.707,2.549-.934,5.274-2.09,7.641-6.361,13.027-10.349,26.625-13.464,40.532-2.2,9.82-7.223,18.279-18.384,22.518-.829.315-1.335,1.311-3.135,3.175,4.68,0,7.994.225,11.254-.057,3.972-.344,7.877-1.292,11.849-1.65,3.9-.352,3.587-3.12,2.708-4.69-3.981-7.114.683-12.366,3.7-18.343,7.316-14.5,13.72-29.367,20.988-43.887a100.375,100.375,0,0,1,11.236-17.466c4.673-5.865,9.414-5.7,15.058-.433a14.328,14.328,0,0,1,3.1,3.451c6.794,13.083,13.475,26.213,20.187,39.331,3.736,7.3,7.276,14.692,11.279,21.875,2.422,4.346,4.641,8.2,2.16,13.4-2.11,4.423-.418,5.756,5.271,6.275,2.159.2,4.233,1.062,6.39,1.363,4.026.562,8.084.935,12.128,1.386l.649-1.348c-.63-.816-1.071-2.1-1.919-2.375-9.9-3.185-14.5-10.489-17.141-18.671-7.384-22.849-14.194-45.845-21.376-68.748-1.579-5.036-3.756-9.923-6.015-15.811a94.611,94.611,0,0,1,10.186-2.158c6.57-.693,13.192-.98,19.791-1.451,4.072-.29,5.412-2.369,4.434-5.727-2.912-10-5.171-20.225-9.128-29.888-2.238-5.464-7.311-10-11.443-15.39l4.438-2.892c.2,8.022,5.778,11.162,12.987,13.841-3.429-6.886-4.255-13.233-.585-19.93,2.338-4.266-1.855-13.986-6.732-15.843a13.036,13.036,0,0,0-8.706.144c-6,2.61-8.831,7.646-9.949,13.43-.219,1.13.143,2.6-.539,3.356a34.4,34.4,0,0,1-4.905,3.846c-.483-1.708-1.828-3.672-1.305-5.08,2.949-7.939,6.255-15.776,9.714-23.551.406-.914,2.476-1.7,3.8-1.741,6.252-.177,12.6-.637,18.745.114,4.919.6,9.585,2.822,14.384,4.272,1.332.4,2.735.622,4.105.925Zm-23.613,73.676c-7.107,1.549-13.4,3.54-19.843,4.049-2.964.235-7.678-1.734-9-3.947a7.251,7.251,0,0,1,3.351-10.385c5.895-2.54,9.752-5.98,11.131-12.35C142.972,261.426,143,270.615,148.454,278.019Z" transform="translate(-31.039 -13.501)"/></g></svg>
